<svg width="106" height="39" viewBox="0 0 106 39" fill="none" xmlns="http://www.w3.org/2000/svg">
<g clip-path="url(#clip0_472_28994)">
<path d="M19.4097 38.6588C30.1294 38.6588 38.8195 30.0047 38.8195 19.3294C38.8195 8.65407 30.1294 0 19.4097 0C8.69004 0 0 8.65407 0 19.3294C0 30.0047 8.69004 38.6588 19.4097 38.6588Z" fill="url(#paint0_linear_472_28994)"/>
<path d="M19.1192 27.4252C19.0279 26.3951 18.9388 25.3672 18.8475 24.3394C15.1597 23.4138 13.6434 21.3467 13.8855 17.4535C15.2989 17.3307 16.7353 17.2057 18.2195 17.076C17.9113 13.5626 17.6121 10.1607 17.3084 6.71094C13.8147 7.01566 10.3689 7.31583 6.91622 7.61601C6.88882 7.73426 6.84544 7.8184 6.85229 7.89799C7.21993 11.5706 7.40489 15.275 8.01002 18.9112C8.9668 24.6532 13.1867 27.78 19.1192 27.4252Z" fill="white"/>
<path d="M15.5704 14.2226C14.9676 14.3431 14.3602 14.2499 13.8395 13.7882C13.682 13.6495 13.5655 13.4767 13.4833 13.2834C13.4719 13.2584 13.4627 13.2311 13.4582 13.2061C13.4376 13.1174 13.481 13.0378 13.5655 13.0082C13.6431 12.9809 13.7322 13.0173 13.7665 13.0969C14.0245 13.7132 14.5337 13.9292 15.1548 13.9338C15.6229 13.9383 16.0294 13.7678 16.3491 13.4176C16.4884 13.2652 16.5797 13.0855 16.6208 12.8809C16.6414 12.7717 16.719 12.7126 16.8172 12.7308C16.9154 12.749 16.9679 12.8354 16.9451 12.9491C16.8583 13.3721 16.6163 13.6882 16.2646 13.9292C16.0728 14.0611 15.8581 14.1475 15.5727 14.2226H15.5704Z" fill="#EC0C6E"/>
<path d="M18.9828 31.8779C19.1106 30.8523 19.2408 29.829 19.3687 28.8034C23.0885 28.0143 24.6801 26.004 24.5865 22.1063C23.1775 21.9312 21.7481 21.7515 20.2684 21.5673C20.7091 18.0676 21.1338 14.6793 21.5654 11.2432C25.0454 11.6775 28.4775 12.105 31.9165 12.5325C31.9393 12.6531 31.9804 12.7372 31.969 12.8168C31.4644 16.4735 31.1424 20.1688 30.4002 23.7777C29.2288 29.481 24.8947 32.4487 18.9805 31.8756L18.9828 31.8779Z" fill="white"/>
<path d="M23.3068 17.9875C22.7108 17.8442 22.0989 17.917 21.5599 18.3559C21.3955 18.49 21.2745 18.656 21.1854 18.847C21.174 18.8721 21.1649 18.8971 21.1558 18.9244C21.1306 19.0131 21.1717 19.0926 21.254 19.1245C21.3293 19.154 21.4229 19.1199 21.4595 19.0426C21.7403 18.4377 22.2587 18.2399 22.8798 18.2581C23.3479 18.2717 23.7475 18.4559 24.0535 18.8198C24.1883 18.9789 24.2727 19.1609 24.3047 19.3655C24.323 19.477 24.3983 19.5384 24.4942 19.5247C24.5924 19.5111 24.6495 19.4269 24.629 19.311C24.5582 18.8857 24.3275 18.5582 23.985 18.3058C23.7978 18.1671 23.5877 18.0716 23.3045 17.9875H23.3068Z" fill="#EC0C6E"/>
<path d="M50.5706 20.7319L49.6823 23.5972H48.9836L48.431 22.2146L47.8898 23.5972H47.191L46.2891 20.7319H47.1408L47.6066 22.3829L48.2917 20.7456H48.5657L49.2645 22.3852L49.7212 20.7319H50.5661H50.5706Z" fill="#181D23"/>
<path d="M50.7305 21.3869H51.4954V23.5973H50.7305V21.3869ZM50.7373 20.4636H51.4909V21.1095H50.7373V20.4636Z" fill="#181D23"/>
<path d="M53.3702 22.9309V23.5972H52.845C52.354 23.5972 52.0549 23.2993 52.0549 22.8081V21.9735H51.6484V21.7961L52.644 20.741H52.8016V21.3868H53.3588V21.9735H52.8199V22.6762C52.8199 22.8354 52.9158 22.9309 53.0779 22.9309H53.3725H53.3702Z" fill="#181D23"/>
<path d="M55.8178 22.2665V23.5991H55.0528V22.3552C55.0528 22.1005 54.9638 21.9709 54.7628 21.9709C54.5322 21.9709 54.3861 22.1347 54.3861 22.4189V23.5991H53.6211V20.5906H54.3861V21.5343C54.5505 21.4024 54.7583 21.3228 54.9798 21.3228C55.489 21.3228 55.8178 21.6958 55.8178 22.2688V22.2665Z" fill="#181D23"/>
<path d="M49.463 18.445H49.3968C48.4537 18.445 47.5883 18.1881 46.7982 17.6764V18.2654H44.1836V7.4432L46.8644 6.55859V10.3904C47.6317 9.91054 48.4766 9.66949 49.3968 9.66949C50.6459 9.66949 51.6803 10.0947 52.4955 10.9475C53.313 11.798 53.7195 12.8418 53.7195 14.0743C53.7195 15.3069 53.3107 16.3165 52.4955 17.1693C51.678 18.0198 50.6687 18.4473 49.463 18.4473V18.445ZM48.9378 16.2028C49.5635 16.2028 50.0796 15.9959 50.4906 15.5797C50.9016 15.1636 51.1072 14.6633 51.1072 14.0743C51.1072 13.4512 50.9016 12.9373 50.4906 12.528C50.0796 12.1186 49.5612 11.914 48.9378 11.914C48.3464 11.914 47.8418 12.1232 47.4262 12.5439C47.0083 12.9646 46.8005 13.474 46.8005 14.0743C46.8005 14.6747 47.0083 15.1659 47.4262 15.5797C47.8418 15.9936 48.3464 16.2028 48.9378 16.2028Z" fill="#181D23"/>
<path d="M58.8178 18.4266C57.361 18.4266 56.2192 18.0036 55.3972 17.1576C54.5751 16.3117 54.1641 15.2725 54.1641 14.0376C54.1641 12.8028 54.5888 11.7886 55.4383 10.9267C56.2877 10.0649 57.3701 9.63281 58.6854 9.63281C60.0007 9.63281 61.0283 10.0558 61.8001 10.9017C62.5719 11.7477 62.9601 12.7937 62.9601 14.0376V14.8404H56.7947C57.1235 15.7796 57.8199 16.248 58.8818 16.248C59.4412 16.248 59.9025 16.1616 60.2701 15.9865C60.6378 15.8114 60.9689 15.5499 61.2657 15.1997L62.7957 16.7392C62.3024 17.3077 61.7407 17.7307 61.1105 18.0081C60.4802 18.2856 59.7152 18.4266 58.8178 18.4266ZM60.2816 13.1553C60.1057 12.2707 59.5577 11.8295 58.6374 11.8295C57.6624 11.8295 57.0641 12.2707 56.8449 13.1553H60.2816Z" fill="#181D23"/>
<path d="M65.2939 21.5057C64.8235 21.5057 64.376 21.4397 63.9535 21.3101C63.5311 21.1782 63.1566 20.9872 62.8278 20.7371L63.8645 18.6586C64.0403 18.8223 64.2435 18.9451 64.4719 19.027C64.7025 19.1089 64.9583 19.1498 65.2437 19.1498C65.7484 19.1498 66.116 18.9087 66.3443 18.4289L62.6953 9.83301H65.7529L67.8583 15.0224L69.9637 9.83301H72.8089L69.1256 18.6745C68.6986 19.7115 68.1734 20.4437 67.5546 20.869C66.9358 21.2942 66.1822 21.508 65.2939 21.508V21.5057Z" fill="#181D23"/>
<path d="M77.0647 18.4266C75.7379 18.4266 74.651 18.0172 73.8015 17.1986C72.9521 16.3799 72.5273 15.327 72.5273 14.0376C72.5273 12.7483 72.9521 11.6931 73.8015 10.8699C74.651 10.0467 75.7379 9.63281 77.0647 9.63281C78.3914 9.63281 79.4943 10.0444 80.3438 10.8699C81.1932 11.6931 81.618 12.7505 81.618 14.0376C81.618 15.3248 81.1932 16.3799 80.3438 17.1986C79.4943 18.0172 78.4005 18.4266 77.0647 18.4266ZM77.0647 16.0365C77.6447 16.0365 78.1151 15.8569 78.4713 15.4953C78.8275 15.136 79.0056 14.6494 79.0056 14.0376C79.0056 13.4259 78.8275 12.9279 78.4713 12.5732C78.1151 12.2184 77.6469 12.041 77.0647 12.041C76.4824 12.041 76.0188 12.2184 75.6672 12.5732C75.3155 12.9279 75.142 13.4168 75.142 14.0376C75.142 14.6585 75.3178 15.1337 75.6672 15.4953C76.0188 15.8546 76.4846 16.0365 77.0647 16.0365Z" fill="#181D23"/>
<path d="M90.5487 18.2629H87.8862V12.9575C87.8862 12.6301 87.7651 12.3572 87.5254 12.1389C87.2833 11.9206 87.0047 11.8114 86.6873 11.8114C86.2261 11.8114 85.8561 11.9251 85.5776 12.1548C85.299 12.3845 85.1574 12.6847 85.1574 13.0553V18.2629H82.4766V9.83072H85.0912V10.5175C85.694 9.94897 86.5275 9.66699 87.5893 9.66699C88.4114 9.66699 89.1101 9.91714 89.6856 10.4197C90.261 10.9223 90.5487 11.5886 90.5487 12.4163V18.2606V18.2629Z" fill="#181D23"/>
<path d="M95.643 18.4444C94.3939 18.4444 93.3595 18.0191 92.5443 17.1664C91.7268 16.3159 91.3203 15.2835 91.3203 14.0714C91.3203 12.8593 91.7291 11.7951 92.5443 10.9446C93.3618 10.0941 94.3939 9.66656 95.643 9.66656C96.5632 9.66656 97.4081 9.90761 98.1754 10.3874V7.44027L100.856 6.55566V18.2625H98.2416V17.6735C97.4515 18.1874 96.5861 18.4421 95.643 18.4421V18.4444ZM96.07 16.2022C96.6728 16.2022 97.1843 15.9952 97.6068 15.5791C98.0292 15.1629 98.2393 14.6626 98.2393 14.0737C98.2393 13.4847 98.0292 12.9639 97.6068 12.5432C97.1843 12.1225 96.6728 11.9133 96.07 11.9133C95.4671 11.9133 94.9465 12.118 94.54 12.5273C94.1336 12.9366 93.9326 13.4529 93.9326 14.0737C93.9326 14.6945 94.1359 15.1925 94.54 15.5973C94.9465 16.0021 95.4557 16.2022 96.07 16.2022Z" fill="#181D23"/>
<path d="M66.1531 34.16H66.0731C65.4224 34.16 64.8091 34.0213 64.2331 33.744C63.6571 33.456 63.2571 33.104 63.0331 32.688L64.9211 30.8C65.1877 31.184 65.5237 31.376 65.9291 31.376C66.2277 31.376 66.4837 31.2693 66.6971 31.056C66.9104 30.8427 67.0171 30.5813 67.0171 30.272L67.0011 23.424L69.8971 22.56V30.544C69.8971 31.7173 69.5557 32.6133 68.8731 33.232C68.1904 33.8507 67.2837 34.16 66.1531 34.16ZM83.0198 34H80.2038V29.664L77.1158 33.008H77.0678L73.9958 29.664V34H71.1798V22.88H71.4678L77.0838 29.136L82.7318 22.88H83.0198V34Z" fill="#181D23"/>
</g>
<defs>
<linearGradient id="paint0_linear_472_28994" x1="19.4097" y1="0" x2="19.4097" y2="38.6588" gradientUnits="userSpaceOnUse">
<stop stop-color="#EC0C6E"/>
<stop offset="1" stop-color="#1217B1"/>
</linearGradient>
<clipPath id="clip0_472_28994">
<rect width="106" height="38.6588" fill="white"/>
</clipPath>
</defs>
</svg>
