<svg width="27" height="26" viewBox="0 0 27 26" fill="none" xmlns="http://www.w3.org/2000/svg">
<path d="M12.441 25.8428H1.02688C0.460777 25.8428 0 25.382 0 24.8159C0 24.2498 0.460777 23.7891 1.02688 23.7891H12.441C13.0071 23.7891 13.4679 24.2498 13.4679 24.8159C13.4679 25.382 13.0071 25.8428 12.441 25.8428Z" fill="#405366"/>
<path d="M25.303 2.05375H1.17141C0.605309 2.05375 0.144531 1.59297 0.144531 1.02688C0.144531 0.460777 0.605309 0 1.17141 0H25.2898C25.8559 0 26.3167 0.460777 26.3167 1.02688C26.3167 1.59297 25.8559 2.05375 25.2898 2.05375H25.303Z" fill="#405366"/>
<path d="M19.3783 13.876H1.2632C0.697105 13.876 0.236328 13.4152 0.236328 12.8491C0.236328 12.283 0.697105 11.8223 1.2632 11.8223H19.3783C19.9444 11.8223 20.4052 12.283 20.4052 12.8491C20.4052 13.4152 19.9444 13.876 19.3783 13.876Z" fill="#405366"/>
</svg>
