<svg width="27" height="27" viewBox="0 0 27 27" fill="none" xmlns="http://www.w3.org/2000/svg">
<path d="M11.4273 2.04059C16.6012 2.04059 20.814 6.25341 20.814 11.4273C20.814 16.6012 16.6012 20.814 11.4273 20.814C6.25341 20.814 2.04059 16.6143 2.04059 11.4273C2.04059 6.24024 6.25341 2.04059 11.4273 2.04059ZM11.4273 0C5.12121 0 0 5.12121 0 11.4273C0 17.7333 5.12121 22.8546 11.4273 22.8546C17.7333 22.8546 22.8546 17.7333 22.8546 11.4273C22.8546 5.12121 17.7465 0 11.4273 0Z" fill="#405366"/>
<path d="M25.3024 26.1457C25.0391 26.1457 24.7758 26.0404 24.5783 25.8429L18.2591 19.5237C17.8642 19.1287 17.8642 18.4836 18.2591 18.0755C18.6541 17.6806 19.2991 17.6806 19.7073 18.0755L26.0265 24.3947C26.4214 24.7897 26.4214 25.4348 26.0265 25.8429C25.829 26.0404 25.5657 26.1457 25.3024 26.1457Z" fill="#405366"/>
</svg>
