<svg width="27" height="27" viewBox="0 0 27 27" fill="none" xmlns="http://www.w3.org/2000/svg">
<path d="M27.002 13.3879C27.002 6.00132 21.08 0.0263671 13.7588 0.0263671C6.43764 0.0263672 0.515625 6.00132 0.515625 13.3879C0.515625 20.7745 6.43764 26.7495 13.7588 26.7495C21.08 26.7495 27.002 20.7745 27.002 13.3879ZM1.81717 13.3879C1.81717 6.72357 7.18603 1.33954 13.7588 1.33954C20.3316 1.33954 25.7005 6.72357 25.7005 13.3879C25.7005 16.7694 24.3338 19.8225 22.0887 21.9892C20.3641 19.0018 17.2079 17.1633 13.7263 17.1633C10.2772 17.1633 7.08841 19.0346 5.36387 21.9892C3.18379 19.8225 1.81717 16.7694 1.81717 13.3879ZM6.4051 22.8756C7.86933 20.1836 10.7002 18.4765 13.7588 18.4765C16.85 18.4765 19.6483 20.1508 21.1125 22.8756C19.0951 24.4843 16.5246 25.4363 13.7588 25.4363C10.993 25.4363 8.42249 24.4843 6.4051 22.8756Z" fill="#415260"/>
<path d="M13.7569 15.4556C16.6203 15.4556 18.9631 13.0919 18.9631 10.2029C18.9631 7.31391 16.6203 4.9502 13.7569 4.9502C10.8936 4.9502 8.55078 7.31391 8.55078 10.2029C8.55078 13.0919 10.8936 15.4556 13.7569 15.4556ZM13.7569 6.26337C15.9045 6.26337 17.6616 8.03616 17.6616 10.2029C17.6616 12.3696 15.9045 14.1424 13.7569 14.1424C11.6094 14.1424 9.85232 12.3696 9.85232 10.2029C9.85232 8.03616 11.6094 6.26337 13.7569 6.26337Z" fill="#415260"/>
</svg>
